Normalized EMG Linear Envelopes
nRows=27
nColumns=17

endheader
time	        VM	        VL	        RF	       GRA	        TA	   ADDLONG	   SEMIMEM	      BFLH	        GM	        GL	       TFL	   GLUTMAX	   GLUTMED	      PIRI	    OBTINT	        QF	
1.8925	  0.037936	  0.022183	  0.036667	  0.451237	  0.066657	  0.429563	  0.052958	  0.044598	  0.292403	  0.198066	  0.276718	  0.012993	  0.210362	  0.375512	  1.902697	  0.314529	
1.893	  0.037307	  0.021304	  0.036962	  0.456344	  0.067624	  0.433167	  0.053307	  0.044069	  0.287610	  0.193811	  0.278487	  0.012929	  0.209864	  0.374044	  1.898855	  0.316189	
1.8935	  0.036698	  0.020446	  0.037267	  0.461418	  0.068630	  0.436700	  0.053661	  0.043564	  0.282830	  0.189597	  0.280239	  0.012870	  0.209346	  0.372528	  1.895059	  0.317826	
1.894	  0.036106	  0.019610	  0.037582	  0.466456	  0.069676	  0.440161	  0.054019	  0.043083	  0.278065	  0.185425	  0.281974	  0.012816	  0.208805	  0.370965	  1.891317	  0.319440	
1.8945	  0.035533	  0.018795	  0.037906	  0.471455	  0.070760	  0.443548	  0.054382	  0.042626	  0.273317	  0.181296	  0.283691	  0.012766	  0.208243	  0.369359	  1.887634	  0.321027	
1.895	  0.034978	  0.018001	  0.038240	  0.476413	  0.071885	  0.446856	  0.054749	  0.042193	  0.268586	  0.177212	  0.285390	  0.012721	  0.207658	  0.367710	  1.884019	  0.322587	
1.8955	  0.034441	  0.017229	  0.038585	  0.481327	  0.073050	  0.450086	  0.055120	  0.041782	  0.263876	  0.173172	  0.287070	  0.012681	  0.207050	  0.366022	  1.880478	  0.324119	
1.896	  0.033921	  0.016477	  0.038939	  0.486193	  0.074254	  0.453233	  0.055494	  0.041395	  0.259188	  0.169178	  0.288732	  0.012645	  0.206420	  0.364296	  1.877019	  0.325619	
1.8965	  0.033419	  0.015745	  0.039303	  0.491009	  0.075499	  0.456296	  0.055872	  0.041031	  0.254523	  0.165230	  0.290375	  0.012613	  0.205766	  0.362536	  1.873648	  0.327088	
1.897	  0.032933	  0.015034	  0.039677	  0.495771	  0.076785	  0.459273	  0.056254	  0.040690	  0.249884	  0.161329	  0.292000	  0.012586	  0.205090	  0.360742	  1.870373	  0.328522	
1.8975	  0.032465	  0.014342	  0.040062	  0.500477	  0.078110	  0.462162	  0.056638	  0.040371	  0.245271	  0.157475	  0.293606	  0.012563	  0.204390	  0.358918	  1.867201	  0.329921	
1.898	  0.032013	  0.013671	  0.040457	  0.505122	  0.079477	  0.464960	  0.057025	  0.040074	  0.240687	  0.153671	  0.295194	  0.012544	  0.203668	  0.357064	  1.864138	  0.331281	
1.8985	  0.031577	  0.013019	  0.040862	  0.509704	  0.080883	  0.467665	  0.057414	  0.039800	  0.236133	  0.149915	  0.296764	  0.012529	  0.202922	  0.355184	  1.861191	  0.332601	
1.899	  0.031158	  0.012386	  0.041277	  0.514219	  0.082331	  0.470275	  0.057806	  0.039547	  0.231610	  0.146208	  0.298316	  0.012518	  0.202154	  0.353278	  1.858367	  0.333878	
1.8995	  0.030754	  0.011772	  0.041703	  0.518663	  0.083819	  0.472788	  0.058199	  0.039316	  0.227121	  0.142552	  0.299850	  0.012510	  0.201363	  0.351349	  1.855671	  0.335112	
1.9	  0.030366	  0.011177	  0.042139	  0.523032	  0.085348	  0.475202	  0.058594	  0.039106	  0.222665	  0.138946	  0.301368	  0.012507	  0.200550	  0.349397	  1.853108	  0.336299	
1.9005	  0.029993	  0.010600	  0.042585	  0.527323	  0.086917	  0.477514	  0.058990	  0.038917	  0.218246	  0.135390	  0.302869	  0.012507	  0.199714	  0.347425	  1.850684	  0.337438	
1.901	  0.029635	  0.010042	  0.043042	  0.531532	  0.088527	  0.479724	  0.059387	  0.038749	  0.213863	  0.131886	  0.304353	  0.012510	  0.198856	  0.345434	  1.848403	  0.338527	
1.9015	  0.029292	  0.009502	  0.043510	  0.535655	  0.090177	  0.481831	  0.059785	  0.038601	  0.209519	  0.128434	  0.305822	  0.012517	  0.197975	  0.343426	  1.846269	  0.339563	
1.902	  0.028963	  0.008979	  0.043988	  0.539688	  0.091867	  0.483834	  0.060183	  0.038474	  0.205214	  0.125033	  0.307275	  0.012527	  0.197072	  0.341403	  1.844286	  0.340546	
1.9025	  0.028649	  0.008474	  0.044477	  0.543629	  0.093598	  0.485733	  0.060581	  0.038366	  0.200950	  0.121685	  0.308712	  0.012541	  0.196146	  0.339364	  1.842457	  0.341474	
1.903	  0.028348	  0.007987	  0.044977	  0.547474	  0.095369	  0.487525	  0.060980	  0.038278	  0.196727	  0.118389	  0.310136	  0.012558	  0.195199	  0.337313	  1.840783	  0.342344	
1.9035	  0.028062	  0.007516	  0.045488	  0.551219	  0.097180	  0.489212	  0.061378	  0.038210	  0.192547	  0.115146	  0.311545	  0.012578	  0.194229	  0.335251	  1.839268	  0.343155	
1.904	  0.027789	  0.007062	  0.046010	  0.554862	  0.099031	  0.490791	  0.061776	  0.038160	  0.188411	  0.111955	  0.312940	  0.012601	  0.193237	  0.333178	  1.837914	  0.343906	
1.9045	  0.027529	  0.006625	  0.046543	  0.558398	  0.100921	  0.492262	  0.062174	  0.038130	  0.184320	  0.108817	  0.314322	  0.012627	  0.192224	  0.331096	  1.836721	  0.344594	
1.905	  0.027282	  0.006204	  0.047088	  0.561826	  0.102851	  0.493625	  0.062570	  0.038118	  0.180273	  0.105733	  0.315692	  0.012656	  0.191190	  0.329007	  1.835690	  0.345218	
1.9055	  0.027048	  0.005799	  0.047644	  0.565142	  0.104819	  0.494879	  0.062966	  0.038124	  0.176274	  0.102701	  0.317049	  0.012688	  0.190136	  0.326911	  1.834824	  0.345776	
